<?xml version="1.0" encoding="UTF-8"?>
<!-- Generated by Pixelmator Pro 3.8 -->
<svg width="1000" height="363" viewBox="0 0 1000 363" xmlns="http://www.w3.org/2000/svg">
    <g id="Group-copy">
        <path id="B" fill="#ffffff" fill-rule="evenodd" stroke="none" d="M 16.138821 349 L 16.138821 343.93689 L 25.252401 340.392731 C 32.003235 337.692383 36.644367 334.317017 39.17593 330.266541 C 41.707493 326.216034 42.973255 320.81543 42.973255 314.064606 L 42.973255 49.770752 C 42.973255 42.682373 41.707493 37.113037 39.17593 33.062531 C 36.644367 29.012024 32.003235 25.80542 25.252401 23.442627 L 16.138821 19.898468 L 16.138821 14.835358 L 161.449799 14.835358 C 202.629898 14.835358 232.333115 22.345551 250.560379 37.36615 C 268.787628 52.38678 277.901123 71.373199 277.901123 94.32605 C 277.901123 111.54068 271.234772 127.151733 257.901855 141.159729 C 244.56897 155.167694 221.700867 165.040649 189.29686 170.77887 C 226.426453 174.829376 253.598145 184.533539 270.812775 199.891693 C 288.027405 215.249847 296.634583 233.898743 296.634583 255.838959 C 296.634583 266.640289 294.27182 277.525848 289.546234 288.495972 C 284.820679 299.466064 276.804169 309.507751 265.496521 318.621399 C 254.188873 327.735016 238.746567 335.076447 219.169159 340.645874 C 199.591736 346.215332 174.782791 349 144.741577 349 Z M 117.907143 170.272552 L 139.678467 170.272552 C 162.293762 170.272552 178.57991 165.040741 188.537399 154.576935 C 198.494873 144.113159 203.473541 125.886169 203.473541 99.895447 C 203.473541 72.89212 198.916794 53.652527 189.803162 42.176117 C 180.689545 30.699677 165.837936 24.961578 145.247879 24.961578 L 117.907143 24.961578 Z M 117.907143 338.873779 L 143.222641 338.873779 C 168.538269 338.873779 187.355942 332.123047 199.676208 318.621399 C 211.99649 305.11972 218.156525 284.023682 218.156525 255.332642 C 218.156525 228.329315 212.249634 209.089722 200.435684 197.613281 C 188.621719 186.136871 169.213364 180.398743 142.210022 180.398743 L 117.907143 180.398743 Z"/>
        <path id="ehaviour" fill="#ffffff" fill-rule="evenodd" stroke="none" d="M 944.408569 169 L 962.139526 169 L 962.139526 120.848236 C 962.139526 105.550903 969.788208 95.642426 985.606995 95.642426 L 989.257507 95.642426 L 989.257507 77.73761 L 984.911682 77.73761 C 974.481689 77.73761 965.268555 83.300262 961.618042 93.382599 L 961.618042 79.475952 L 944.408569 79.475952 Z M 879.22113 171.607498 C 891.91095 171.607498 901.64563 166.566345 906.686768 157.87468 L 906.686768 169 L 924.070068 169 L 924.070068 79.475952 L 906.165283 79.475952 L 906.165283 131.10437 C 906.165283 145.011032 898.342773 154.919525 884.436157 154.919525 C 872.267822 154.919525 864.792969 147.270859 864.792969 131.799713 L 864.792969 79.475952 L 847.062012 79.475952 L 847.062012 134.754883 C 847.062012 161.003677 861.316345 171.607498 879.22113 171.607498 Z M 787.0896 171.607498 C 815.076721 171.607498 833.155334 152.312012 833.155334 124.151062 C 833.155334 96.337769 815.076721 76.868439 787.0896 76.868439 C 759.276245 76.868439 741.023804 96.16394 741.023804 124.151062 C 741.023804 152.138184 759.276245 171.607498 787.0896 171.607498 Z M 787.0896 155.267181 C 770.227783 155.267181 759.102417 143.794189 759.102417 124.151062 C 759.102417 104.855591 770.227783 93.208771 787.0896 93.208771 C 803.951416 93.208771 815.076721 104.681763 815.076721 124.151062 C 815.076721 143.620361 804.125244 155.267181 787.0896 155.267181 Z M 707.995483 169 L 725.726501 169 L 725.726501 79.475952 L 707.995483 79.475952 Z M 716.861023 67.829132 C 723.466675 67.829132 728.507813 62.787964 728.507813 56.182312 C 728.507813 49.750488 723.466675 44.535492 716.861023 44.535492 C 710.429199 44.535492 705.214233 49.57666 705.214233 56.182312 C 705.214233 62.614136 710.255371 67.829132 716.861023 67.829132 Z M 428.471863 169 L 446.20285 169 L 446.20285 117.371567 C 446.20285 103.464905 454.372986 93.556427 468.627319 93.556427 C 481.143311 93.556427 488.791962 101.205078 488.791962 116.676239 L 488.791962 169 L 506.696777 169 L 506.696777 113.721069 C 506.696777 87.47226 492.442444 76.868439 473.146973 76.868439 C 461.674011 76.868439 451.07019 81.909607 446.20285 89.905945 L 446.20285 46.447632 L 428.471863 46.447632 Z M 370.411621 171.607498 C 392.314575 171.607498 407.785706 160.134506 412.131561 141.708206 L 393.705231 141.708206 C 390.576233 151.095184 382.579926 156.484009 370.759277 156.484009 C 354.766632 156.484009 344.336639 146.575531 343.29364 130.061371 L 412.826874 130.061371 C 413.174561 127.453888 413.522217 123.977234 413.522217 120.674393 L 413.522217 120.152893 C 413.522217 94.25177 395.617401 76.868439 369.194763 76.868439 C 343.119812 76.868439 325.041168 95.990082 325.041168 123.803391 C 325.041168 152.833527 342.772125 171.607498 370.411621 171.607498 Z M 395.095917 115.980896 L 343.29364 115.980896 C 344.858124 100.857422 354.766632 91.644257 369.368591 91.644257 C 384.492096 91.644257 394.400574 100.857422 395.095917 115.980896 Z M 581.271179 159.78685 C 576.751526 164.828003 568.059875 171.607498 552.762573 171.607498 C 534.510071 171.607498 521.298767 161.525177 521.298767 144.663361 C 521.298767 128.149216 532.945557 120.152893 547.895203 117.545395 L 569.798218 113.547241 C 576.751526 112.15657 580.575806 110.070572 580.575806 103.98642 C 580.575806 96.685425 574.491699 91.818085 562.844849 91.818085 C 552.241028 91.818085 543.027893 96.337769 542.158691 106.767761 L 523.90625 106.767761 C 524.949219 88.515259 541.637207 76.868439 562.671021 76.868439 C 587.529175 76.868439 598.306824 89.38443 598.306824 104.681763 L 598.306824 147.792358 C 598.306824 153.181183 601.088135 154.745682 604.390991 154.745682 C 605.955444 154.745682 607.693848 154.39801 609.084473 154.050354 L 609.084473 168.4785 C 606.303101 169.695328 602.304993 170.738327 597.263794 170.738327 C 589.615173 170.738327 583.357178 167.261673 581.271179 159.78685 Z M 660.365234 169 L 642.112793 169 L 605.43396 79.475952 L 625.424805 79.475952 L 642.112793 123.977234 L 651.1521 148.313858 L 660.365234 123.977234 L 676.879395 79.475952 L 696.870239 79.475952 L 660.365234 169 Z M 539.551208 143.968033 C 539.551208 152.312012 546.852234 156.657852 556.586853 156.657852 C 570.145874 156.657852 580.575806 148.66153 580.575806 137.188538 L 580.575806 123.455719 C 579.011353 125.194061 573.796387 126.758545 567.886047 127.801544 L 553.97937 130.409058 C 544.070923 132.321213 539.551208 136.49321 539.551208 143.968033 Z"/>
        <path id="ureau" fill="#ffffff" fill-rule="evenodd" stroke="none" d="M 705.388062 324.607483 C 718.077881 324.607483 727.8125 319.566345 732.853638 310.874695 L 732.853638 322 L 750.236938 322 L 750.236938 232.475952 L 732.332153 232.475952 L 732.332153 284.10437 C 732.332153 298.011047 724.509644 307.919525 710.603027 307.919525 C 698.434692 307.919525 690.959839 300.270874 690.959839 284.799713 L 690.959839 232.475952 L 673.228882 232.475952 L 673.228882 287.754883 C 673.228882 314.003662 687.483215 324.607483 705.388062 324.607483 Z M 606.303101 324.607483 C 621.600464 324.607483 630.292114 317.828003 634.811768 312.786835 C 636.897766 320.261658 643.155762 323.738342 650.804443 323.738342 C 655.845581 323.738342 659.84375 322.695343 662.625061 321.478516 L 662.625061 307.050354 C 661.234375 307.39801 659.496094 307.745697 657.93158 307.745697 C 654.628784 307.745697 651.847412 306.181183 651.847412 300.792358 L 651.847412 257.681763 C 651.847412 242.38443 641.069763 229.868439 616.21167 229.868439 C 595.177856 229.868439 578.489868 241.515259 577.446838 259.767761 L 595.699341 259.767761 C 596.568481 249.337753 605.781616 244.818085 616.385498 244.818085 C 628.032288 244.818085 634.116455 249.685425 634.116455 256.98642 C 634.116455 263.070557 630.292114 265.156555 623.338745 266.547241 L 601.435791 270.54541 C 586.486206 273.152893 574.839355 281.149231 574.839355 297.663361 C 574.839355 314.525177 588.050659 324.607483 606.303101 324.607483 Z M 610.127441 309.657837 C 600.392822 309.657837 593.091797 305.312012 593.091797 296.968018 C 593.091797 289.493225 597.61145 285.321228 607.52002 283.409058 L 621.426636 280.801544 C 627.336914 279.758545 632.551941 278.194061 634.116455 276.455719 L 634.116455 290.188538 C 634.116455 301.66153 623.686462 309.657837 610.127441 309.657837 Z M 521.298767 324.607483 C 543.201721 324.607483 558.672852 313.134521 563.018677 294.708191 L 544.592407 294.708191 C 541.463379 304.095184 533.467041 309.484009 521.646423 309.484009 C 505.653748 309.484009 495.223785 299.575531 494.180786 283.061371 L 563.71405 283.061371 C 564.061707 280.453888 564.409363 276.977234 564.409363 273.674377 L 564.409363 273.152893 C 564.409363 247.25177 546.504517 229.868439 520.081909 229.868439 C 494.006958 229.868439 475.928314 248.990082 475.928314 276.803406 C 475.928314 305.833527 493.659302 324.607483 521.298767 324.607483 Z M 545.983032 268.980896 L 494.180786 268.980896 C 495.7453 253.857422 505.653748 244.644257 520.255737 244.644257 C 535.379211 244.644257 545.28772 253.857422 545.983032 268.980896 Z M 426.733521 322 L 444.464508 322 L 444.464508 273.848236 C 444.464508 258.550903 452.113159 248.642426 467.931976 248.642426 L 471.582458 248.642426 L 471.582458 230.73761 L 467.236633 230.73761 C 456.806671 230.73761 447.593506 236.300262 443.943024 246.382599 L 443.943024 232.475952 L 426.733521 232.475952 Z M 361.546112 324.607483 C 374.235931 324.607483 383.970581 319.566345 389.011749 310.874695 L 389.011749 322 L 406.39505 322 L 406.39505 232.475952 L 388.490234 232.475952 L 388.490234 284.10437 C 388.490234 298.011047 380.667755 307.919525 366.761108 307.919525 C 354.592773 307.919525 347.117981 300.270874 347.117981 284.799713 L 347.117981 232.475952 L 329.386993 232.475952 L 329.386993 287.754883 C 329.386993 314.003662 343.641296 324.607483 361.546112 324.607483 Z"/>
    </g>
</svg>
